REM DIRINDEX 1\2\4,1\2\5,1\2\6,1\3\7,1\3\8
REM DIRNAME cjc128,folder01,folder02,folder03,folder04,folder05,folder06,folder07
TITLE ""
FILE "037_Proficiency Test02.mp3" MP3
  TRACK 01 AUDIO
    TITLE "0:"
    INDEX 01 00:00:00
  TRACK 02 AUDIO
    TITLE "6:cjc128_2221"
    INDEX 01 00:00:25
  TRACK 03 AUDIO
    TITLE "0:"
    INDEX 01 00:02:36
  TRACK 04 AUDIO
    TITLE "6:cjc128_2222"
    INDEX 01 00:03:12
  TRACK 05 AUDIO
    TITLE "0:"
    INDEX 01 00:05:20
  TRACK 06 AUDIO
    TITLE "4:cjc128_2223"
    INDEX 01 00:05:67
  TRACK 07 AUDIO
    TITLE "0:"
    INDEX 01 00:09:47
  TRACK 08 AUDIO
    TITLE "5:cjc128_2224"
    INDEX 01 00:13:43
  TRACK 09 AUDIO
    TITLE "0:"
    INDEX 01 00:16:59
  TRACK 10 AUDIO
    TITLE "6:cjc128_2225"
    INDEX 01 00:17:29
  TRACK 11 AUDIO
    TITLE "0:"
    INDEX 01 00:19:07
  TRACK 12 AUDIO
    TITLE "4:cjc128_2226"
    INDEX 01 00:19:69
  TRACK 13 AUDIO
    TITLE "0:"
    INDEX 01 00:24:41
  TRACK 14 AUDIO
    TITLE "5:cjc128_2227"
    INDEX 01 00:29:31
  TRACK 15 AUDIO
    TITLE "0:"
    INDEX 01 00:33:34
  TRACK 16 AUDIO
    TITLE "6:cjc128_2228"
    INDEX 01 00:34:12
  TRACK 17 AUDIO
    TITLE "0:"
    INDEX 01 00:36:13
  TRACK 18 AUDIO
    TITLE "4:cjc128_2229"
    INDEX 01 00:36:68
  TRACK 19 AUDIO
    TITLE "0:"
    INDEX 01 00:40:48
  TRACK 20 AUDIO
    TITLE "5:cjc128_2230"
    INDEX 01 00:44:71
  TRACK 21 AUDIO
    TITLE "0:"
    INDEX 01 00:48:51
  TRACK 22 AUDIO
    TITLE "6:cjc128_2231"
    INDEX 01 00:49:29
  TRACK 23 AUDIO
    TITLE "0:"
    INDEX 01 00:51:44
  TRACK 24 AUDIO
    TITLE "4:cjc128_2232"
    INDEX 01 00:52:28
  TRACK 25 AUDIO
    TITLE "0:"
    INDEX 01 00:55:20
  TRACK 26 AUDIO
    TITLE "5:cjc128_2233"
    INDEX 01 00:57:62
  TRACK 27 AUDIO
    TITLE "0:"
    INDEX 01 01:00:17
  TRACK 28 AUDIO
    TITLE "6:cjc128_2234"
    INDEX 01 01:00:64
  TRACK 29 AUDIO
    TITLE "0:"
    INDEX 01 01:02:69
  TRACK 30 AUDIO
    TITLE "4:cjc128_2235"
    INDEX 01 01:03:49
  TRACK 31 AUDIO
    TITLE "0:"
    INDEX 01 01:07:14
  TRACK 32 AUDIO
    TITLE "5:cjc128_2236"
    INDEX 01 01:10:65
  TRACK 33 AUDIO
    TITLE "0:"
    INDEX 01 01:14:10
